# xmcd CD database file
#
# Track frame offsets:
#	150
#	17421
#	36233
#	51006
#	72657
#	90659
#	108465
#	126466
#	148085
#	176696
#	191771
#	209773
#	230675
#	257094
#	272910
#	290058
#	304399
#
# Disc length: 4263 seconds
#
# Revision: 1
# Processed by: cddbd v1.5.2PL0 Copyright (c) Steve Scherf et al.
# Submitted via: CDex 1.50
#
DISCID=1710a511
DTITLE=P. C. Cast - 01 - Moon Chosen CD03
DYEAR=2017
DGENRE=Hörbuch
TTITLE0=Gefährten einer neuen Welt [CD 3)
TTITLE1=Gefährten einer neuen Welt [CD 3)
TTITLE2=Gefährten einer neuen Welt [CD 3)
TTITLE3=Gefährten einer neuen Welt [CD 3)
TTITLE4=Gefährten einer neuen Welt [CD 3)
TTITLE5=Gefährten einer neuen Welt [CD 3)
TTITLE6=Gefährten einer neuen Welt [CD 3)
TTITLE7=Gefährten einer neuen Welt [CD 3)
TTITLE8=Gefährten einer neuen Welt [CD 3)
TTITLE9=Gefährten einer neuen Welt [CD 3)
TTITLE10=Gefährten einer neuen Welt [CD 3)
TTITLE11=Gefährten einer neuen Welt [CD 3)
TTITLE12=Gefährten einer neuen Welt [CD 3)
TTITLE13=Gefährten einer neuen Welt [CD 3)
TTITLE14=Gefährten einer neuen Welt [CD 3)
TTITLE15=Gefährten einer neuen Welt [CD 3)
TTITLE16=Gefährten einer neuen Welt [CD 3)
EXTD=YEAR: 2017
EXTT0=
EXTT1=
EXTT2=
EXTT3=
EXTT4=
EXTT5=
EXTT6=
EXTT7=
EXTT8=
EXTT9=
EXTT10=
EXTT11=
EXTT12=
EXTT13=
EXTT14=
EXTT15=
EXTT16=
PLAYORDER=
